<svg width="64" height="92" viewBox="0 0 64 92" fill="none" xmlns="http://www.w3.org/2000/svg">
              <path d="M25.8041 0.910454C20.2862 5.91179 20.2189 13.1078 22.9473 27.9178C23.232 29.4633 23.7122 30.9801 24.1866 32.4785L24.1905 32.4906C27.3362 42.4263 23.6758 48.7501 20.3257 48.713C17.0228 48.6764 17.4784 43.6722 18.1151 40.4311C19.0734 35.5531 19.8193 28.9656 18.1954 27.2282C18.2024 27.203 18.1648 27.1926 18.153 27.2159C12.2985 38.8179 6.23531 41.7243 1.95063 54.6137C1.01929 57.4155 0.660002 60.419 1.0238 63.349C7.24826 113.48 95.8827 82.6534 37.357 18.9396C36.9755 18.5243 36.2573 18.849 36.4123 19.3912C37.7592 24.1049 38.7085 27.4844 38.5248 30.6616C38.4646 31.7042 37.3433 32.2477 36.479 31.6613C29.6866 27.0527 24.3969 15.4384 26.6506 1.40176C26.7294 0.911033 26.1723 0.576674 25.8041 0.910454Z" fill="url(#paint0_linear_468_1468)" />
              <path d="M33.382 49.6839C29.0685 63.4513 24.2683 60.202 14.2039 50.7644L28.5199 68.592C36.4938 79.8671 32.5717 84.7991 21.497 85.8793C38.7225 85.6066 48.9122 85.9394 39.0544 61.0288C35.6019 51.2172 35.9994 46.4127 41.0474 40.0207C41.505 39.4412 42.0848 38.6461 41.5938 38.0947C40.9074 37.3241 39.5889 38.2495 38.9376 39.05C37.1455 41.253 34.305 46.6371 33.382 49.6839Z" fill="white" />
              <path d="M23.184 76.5226C23.5101 72.6287 23.0184 70.5211 19.5856 68.2165C19.4417 68.1199 19.2485 68.1395 19.1259 68.262C18.9578 68.4301 18.9925 68.7118 19.1922 68.841C21.0536 70.0465 22.0096 71.2099 22.3598 72.8073C22.8639 75.1062 18.537 75.9729 18.8103 78.3105C18.9485 79.493 21.398 80.6174 22.8236 77.8939C23.0438 77.4733 23.1444 76.9956 23.184 76.5226Z" fill="white" />
              <path d="M30.4271 79.9841C32.0338 77.6911 30.5117 71.9954 24.741 66.6794C24.5765 66.5279 24.3367 66.4839 24.1291 66.5669C23.695 66.7406 23.6257 67.3319 23.9914 67.6231C28.3777 71.1164 30.6685 76.4181 29.5649 79.2072C28.8477 81.0197 26.4305 78.9243 24.5817 79.5421C22.766 80.1488 22.8794 85.1061 25.983 82.9615C27.4215 81.9675 29.4238 81.416 30.4271 79.9841Z" fill="white" />
              <path d="M39.7098 15.1157C43.4839 18.7893 45.7952 21.2687 49.4085 25.6601C54.3656 31.7911 57.0813 35.7452 60.5177 42.6823C61.2243 44.1088 61.75 45.6215 62.0782 47.1793C63.4621 53.7481 63.7889 58.1055 62.9143 65.367C62.5714 67.2527 61.806 69.8061 60.9029 72.361C58.6252 78.8046 53.7968 86.3949 47.517 89.0915C43.5455 90.7969 39.166 91.8211 36.4706 91.5986C35.1586 92.0073 34.7146 92.0773 36.0661 91.605C36.1896 91.5618 36.2357 91.5767 36.3659 91.5893C36.4005 91.5926 36.4354 91.5957 36.4706 91.5986C39.0958 90.781 45.1959 88.6076 47.3414 86.7097C49.9901 84.3668 52.8581 81.0595 54.9172 77.8411C57.6813 73.521 58.5282 68.275 59.1566 63.185C59.7477 58.3967 59.5579 54.5232 58.8626 49.1601C56.8995 40.8145 54.7332 37.1799 50.489 31.0624C46.4229 25.1564 43.5692 21.8518 38.6691 16.3456C38.2692 15.8963 37.9457 15.3823 37.7145 14.827L37.6139 14.5853L37.1641 13.5049C38.1139 13.8613 38.9828 14.4081 39.7098 15.1157Z" fill="#17A6E1" />
              <ellipse cx="25.7124" cy="53.0971" rx="3.96984" ry="5.38306" transform="rotate(-14.0182 25.7124 53.0971)" fill="#FEFCFD" />
              <defs>
                <linearGradient id="paint0_linear_468_1468" x1="28.9741" y1="0" x2="28.9741" y2="88.3005" gradientUnits="userSpaceOnUse">
                  <stop stop-color="#54B0BD" />
                  <stop offset="0.221646" stop-color="#1F448E" />
                  <stop offset="0.328125" stop-color="#051077" />
                  <stop offset="0.791667" stop-color="#FE141F" />
                </linearGradient>
              </defs>
            </svg>