<?xml version="1.0" encoding="utf-8"?>
<!-- Generator: Adobe Illustrator 26.0.3, SVG Export Plug-In . SVG Version: 6.00 Build 0)  -->
<svg version="1.0" id="Layer_1" xmlns="http://www.w3.org/2000/svg" xmlns:xlink="http://www.w3.org/1999/xlink" x="0px" y="0px"
	 viewBox="0 0 859.7 594.4" style="enable-background:new 0 0 859.7 594.4;" xml:space="preserve">
<style type="text/css">
	.st0{fill:url(#path7258_00000044158883567524668650000011376924702426653063_);}
	.st1{fill:none;}
	.st2{fill:#BE202E;}
	.st3{opacity:0.35;fill:#BE202E;enable-background:new    ;}
	.st4{fill:url(#path7286_00000124134832716670585580000005226077478343839925_);}
	.st5{fill:url(#path7298_00000139284309789323475390000014791519636560499131_);}
	.st6{fill:url(#path7310_00000134212362853035402290000001605743885133930383_);}
	.st7{fill:url(#path7322_00000069399314851939396750000017441104511016104584_);}
	.st8{fill:url(#path7334_00000146494805897703449230000010223398580824102051_);}
	.st9{fill:url(#path7346_00000080890947730320059120000005608169508038022292_);}
	.st10{fill:url(#path7362_00000120519260867608762740000009628363952194889889_);}
	.st11{fill:url(#path7378_00000106141633793555963800000003699130110040715933_);}
	.st12{fill:url(#path7394_00000034777382041101647230000011851110709753095063_);}
	.st13{fill:url(#path4710_00000132070349772439311490000008270724289244747453_);}
	.st14{fill:url(#path4737_00000145035323547674632550000004424084788527335333_);}
	.st15{fill:url(#path4748_00000139998130563092692480000008112943105961203367_);}
	.st16{fill:url(#path4759_00000168813986000296650790000014270273911531320743_);}
	.st17{fill:url(#path4770_00000051371642037853812310000010880562184394987962_);}
	.st18{fill:url(#path4781_00000156566619345524574430000010785732425968624777_);}
	.st19{fill:url(#path4792_00000161627430670743291950000000104811827785835445_);}
	.st20{fill:url(#path4807_00000142139621572164079700000001745658790979919500_);}
	.st21{fill:url(#path4822_00000138563073094449380410000000004385189792989858_);}
	.st22{fill:url(#path4837_00000097474162453628738000000011543559578941982395_);}
</style>
<g id="g8927">
	<g id="g7248">
		
			<linearGradient id="path7258_00000142160256571255610120000000073234976981016454_" gradientUnits="userSpaceOnUse" x1="-11430.5674" y1="-657.5458" x2="-11265.1875" y2="-464.1657" gradientTransform="matrix(-2.000000e-02 -0.12 0.12 -2.000000e-02 220.3168 -1090.5817)">
			<stop  offset="0" style="stop-color:#F69923"/>
			<stop  offset="0.31" style="stop-color:#F79A23"/>
			<stop  offset="0.84" style="stop-color:#E97826"/>
		</linearGradient>
		<path id="path7258" style="fill:url(#path7258_00000142160256571255610120000000073234976981016454_);" d="M402.2,242.1
			c-1,2.3-1.8,7.4-2.1,14.2l7.6,3.7c-0.1-4.5,0.1-9.1,0.6-13.6c0-0.3,0.1-0.5,0.1-0.5c0,0.2,0,0.3-0.1,0.5c-0.4,4.5-0.4,8.9,0,13.4
			c4-3.4,7.7-6.9,11.3-10.7c-3.8-7.8-8.5-9.1-8.5-9.1S404.3,237.3,402.2,242.1z"/>
		<path id="path7260" class="st1" d="M422.1,280.6C422.1,280.5,422.1,280.5,422.1,280.6l-0.4,0.3c0,0,0,0.1-0.1,0.1L422.1,280.6z"/>
		<path id="path7262" class="st1" d="M426.8,293.8c-0.2,0.2-0.5,0.5-0.7,0.7C426.3,294.2,426.6,294,426.8,293.8z"/>
		<path id="path7264" class="st1" d="M422.3,334.3c0-0.1-0.1-0.2-0.1-0.3c-0.7-2.4-1.3-4.7-1.9-7c-0.7-2.5-1.3-5-1.9-7.4
			s-1.2-5-1.8-7.4s-1.1-4.9-1.7-7.3c-0.4-1.9-0.8-3.8-1.2-5.6c-0.1-0.6-0.2-1.2-0.4-1.8c-0.2-1.2-0.5-2.3-0.7-3.5s-0.4-2.1-0.6-3.1
			c-0.1-0.3-0.1-0.7-0.2-1v-0.2l-0.4,0.3l-0.8-0.4c0,0.1,0,0.2,0,0.2c0.2,1.5,0.5,3.1,0.8,4.6c0.2,0.9,0.3,1.8,0.5,2.7
			c0.5,2.5,1,5,1.5,7.5s1.1,5,1.6,7.5s1.1,4.9,1.7,7.3s1.2,4.8,1.8,7.2s1.3,4.9,2,7.4c0.1,0.5,0.3,1.1,0.5,1.6
			c0.5,2,1.1,3.9,1.6,5.7l1.2,0.6l0.4-0.4c0-0.1,0-0.1,0-0.1C423.7,339.1,423,336.7,422.3,334.3z"/>
		<path id="path7268" class="st2" d="M428.7,300.7c-0.4,0.4-0.7,0.8-1.1,1.1l0,0c0.2-0.2,0.4-0.4,0.6-0.6
			C428.4,301.1,428.5,300.9,428.7,300.7z"/>
		<path id="path7270" class="st3" d="M428.7,300.7c-0.4,0.4-0.7,0.8-1.1,1.1l0,0c0.2-0.2,0.4-0.4,0.6-0.6
			C428.4,301.1,428.5,300.9,428.7,300.7z"/>
		<path id="path7272" class="st2" d="M425.9,294.6L425.9,294.6l0.2-0.2c0.2-0.2,0.5-0.5,0.7-0.7C426.5,294,426.2,294.3,425.9,294.6
			L425.9,294.6z"/>
		<path id="path7274" class="st3" d="M425.9,294.6L425.9,294.6l0.2-0.2c0.2-0.2,0.5-0.5,0.7-0.7C426.5,294,426.2,294.3,425.9,294.6
			L425.9,294.6z"/>
		
			<linearGradient id="path7286_00000144331083348052451290000015936340722464419775_" gradientUnits="userSpaceOnUse" x1="-12636.1641" y1="-351.3202" x2="-11456.2539" y2="-351.3202" gradientTransform="matrix(-2.000000e-02 -0.12 0.12 -2.000000e-02 220.3168 -1090.5817)">
			<stop  offset="0.32" style="stop-color:#9E2064"/>
			<stop  offset="0.63" style="stop-color:#C92037"/>
			<stop  offset="0.75" style="stop-color:#CD2335"/>
			<stop  offset="1" style="stop-color:#E97826"/>
		</linearGradient>
		<path id="path7286" style="fill:url(#path7286_00000144331083348052451290000015936340722464419775_);" d="M409.7,282.5
			c-0.4-2.5-0.7-5-1-7.5s-0.5-5-0.7-7.5c0-0.1,0-0.3,0-0.4c-0.2-2.4-0.3-4.8-0.3-7.1l-7.6-3.7c0,0.5,0,0.9-0.1,1.4
			c-0.1,1.8-0.1,3.8-0.1,5.8c0,2.3,0,4.7,0,7.2c0,2.3,0.1,4.7,0.3,7.2c0.1,2.1,0.3,4.2,0.4,6.4c0,0.1,0,0.2,0,0.2l10.2,5.2
			C410.5,287.3,410.1,284.9,409.7,282.5z"/>
		
			<linearGradient id="path7298_00000067231493351702040530000002002402334133462181_" gradientUnits="userSpaceOnUse" x1="-12493.7344" y1="-218.6441" x2="-11790.624" y2="-218.6441" gradientTransform="matrix(-2.000000e-02 -0.12 0.12 -2.000000e-02 220.3168 -1090.5817)">
			<stop  offset="0" style="stop-color:#282662"/>
			<stop  offset="0.1" style="stop-color:#662E8D"/>
			<stop  offset="0.79" style="stop-color:#9F2064"/>
			<stop  offset="0.95" style="stop-color:#CD2032"/>
		</linearGradient>
		<path id="path7298" style="fill:url(#path7298_00000067231493351702040530000002002402334133462181_);" d="M424.8,342.8
			c0.6,1.9,1.1,3.9,1.8,5.9c0,0,0,0,0,0.1c0.1,0.3,0.2,0.6,0.3,0.8c0.4,1.3,0.8,2.5,1.6,5.3c1.6-0.3,3.7,0.4,5.9,1.4
			c-1.4-1.7-3.4-2.8-5.6-3c6.2-4.2,10.3-9.5,9.8-15.9c-0.1-0.6-0.1-1.2-0.2-1.8c-0.1,2.5-1.1,4.2-4.1,6.2l0,0l0,0
			c2.8-5,3.6-8.3,3.3-12.7c-0.1-1-0.2-2.1-0.4-3.3c-0.6,5.8-4.2,10.8-9.5,13.2l-3.1,2.9L424.8,342.8z"/>
		
			<linearGradient id="path7310_00000034786977123547074850000013650959364035944853_" gradientUnits="userSpaceOnUse" x1="-12569.9043" y1="-347.9279" x2="-11389.9844" y2="-347.9279" gradientTransform="matrix(-2.000000e-02 -0.12 0.12 -2.000000e-02 220.3168 -1090.5817)">
			<stop  offset="0.32" style="stop-color:#9E2064"/>
			<stop  offset="0.63" style="stop-color:#C92037"/>
			<stop  offset="0.75" style="stop-color:#CD2335"/>
			<stop  offset="1" style="stop-color:#E97826"/>
		</linearGradient>
		<path id="path7310" style="fill:url(#path7310_00000034786977123547074850000013650959364035944853_);" d="M420.8,334.1
			c-0.6-2.4-1.3-4.9-2-7.4s-1.2-4.8-1.8-7.2s-1.2-4.9-1.7-7.3s-1.1-5-1.6-7.5s-1-5-1.5-7.5c-0.2-0.9-0.3-1.8-0.5-2.7
			c-0.3-1.5-0.5-3.1-0.8-4.6c0-0.1,0-0.2-0.1-0.2l-10.1-5.2c0,0.2,0,0.3,0,0.5c0.2,2.3,0.4,4.6,0.7,7s0.6,4.8,0.9,7.2
			c0.3,2,0.6,4,1,6.1c0.1,0.4,0.1,0.8,0.2,1.2c0.5,2.5,1,5,1.5,7.2c0.6,2.6,1.2,5,1.9,7.2c0.4,1.5,0.9,2.9,1.3,4.2
			c0.4,1.1,0.8,2.3,1.2,3.4c1,2.6,2,5.2,3.2,7.7l10.2,5.1c-0.5-1.9-1-3.8-1.6-5.7C421.1,335.2,421,334.7,420.8,334.1z"/>
		
			<linearGradient id="path7322_00000039118599542422846870000010167424113365339523_" gradientUnits="userSpaceOnUse" x1="-12483.8447" y1="-321.115" x2="-11863.7646" y2="-321.115" gradientTransform="matrix(-2.000000e-02 -0.12 0.12 -2.000000e-02 220.3168 -1090.5817)">
			<stop  offset="0" style="stop-color:#282662"/>
			<stop  offset="0.1" style="stop-color:#662E8D"/>
			<stop  offset="0.79" style="stop-color:#9F2064"/>
			<stop  offset="0.95" style="stop-color:#CD2032"/>
		</linearGradient>
		<path id="path7322" style="fill:url(#path7322_00000039118599542422846870000010167424113365339523_);" d="M412.8,336.6
			c1.4,3,3,5.9,4.7,8.7c0.1,0.1,0.1,0.2,0.2,0.3c-2.8-1.1-7.9-0.6-7.8-0.6c5.2,1.8,9.7,4,12.6,7.3c-1.1,1.2-3.3,2.2-6,3
			c2.2,0.4,4.4,0.2,6.5-0.6c-1.9,1.6-3,4.6-4,7.7c2.2-3.6,4.3-5.9,6.4-6.8c3.1,10.2,6.8,21.2,10.9,32.8c0.6-0.8,0.8-1.9,0.5-2.9
			c-0.8-2.1-5.6-15.9-11.2-34.6c-0.2-0.5-0.3-1.1-0.5-1.6L425,349c-0.6-2-1.1-4-1.7-6c-0.1-0.5-0.3-0.9-0.4-1.4l0,0l-10.2-5.2
			C412.7,336.4,412.7,336.5,412.8,336.6z"/>
		
			<linearGradient id="path7334_00000142857322142012782880000005402539853196149637_" gradientUnits="userSpaceOnUse" x1="-12569.9043" y1="-234.842" x2="-11389.9844" y2="-234.842" gradientTransform="matrix(-2.000000e-02 -0.12 0.12 -2.000000e-02 220.3168 -1090.5817)">
			<stop  offset="0.32" style="stop-color:#9E2064"/>
			<stop  offset="0.63" style="stop-color:#C92037"/>
			<stop  offset="0.75" style="stop-color:#CD2335"/>
			<stop  offset="1" style="stop-color:#E97826"/>
		</linearGradient>
		<path id="path7334" style="fill:url(#path7334_00000142857322142012782880000005402539853196149637_);" d="M412,289.9
			c0.1,0.3,0.1,0.6,0.2,1c0.2,1,0.4,2,0.6,3.1s0.5,2.3,0.7,3.5c0.1,0.6,0.2,1.2,0.4,1.8c0.4,1.8,0.8,3.7,1.2,5.6
			c0.5,2.4,1.1,4.8,1.7,7.3s1.2,4.9,1.8,7.4s1.2,4.9,1.9,7.4c0.6,2.3,1.2,4.6,1.9,7c0,0.1,0.1,0.2,0.1,0.3c0.7,2.4,1.4,4.8,2.1,7.2
			c0,0.1,0,0.1,0,0.2l3.1-2.9l-0.2,0.1c3.7-3.5,6.8-10.4,7.5-16.6c0.3-3.1,0.3-6.2-0.1-9.3c-0.3-2.7-0.8-5.3-1.5-8
			c-0.6-2.5-1.4-5-2.3-7.8c-0.6,1.2-1.4,2.4-2.4,3.4l-0.5,0.6c-0.2,0.2-0.4,0.4-0.6,0.6l0,0c2.7-4.2,3-8.7,2.2-13.4
			c-0.7,1.9-1.7,3.7-3.1,5.3c-0.2,0.3-0.4,0.5-0.7,0.7c-0.1,0-0.1,0.1-0.2,0.2l0,0c0.8-1.4,1.5-2.8,2-4.4c0.1-0.3,0.2-0.6,0.2-0.9
			c0.1-0.5,0.2-0.9,0.2-1.4c0-0.3,0.1-0.6,0.1-0.9c0.1-0.7,0.1-1.5,0-2.2c0-0.2,0-0.5-0.1-0.7s-0.1-0.7-0.2-1
			c-0.2-1.4-0.5-2.7-0.8-3.8c-0.1-0.5-0.3-1-0.4-1.5c-0.1-0.2-0.1-0.4-0.2-0.5c-0.2-0.5-0.3-0.9-0.5-1.3c-0.2-0.4-0.3-0.9-0.6-1.3
			l0,0c-0.1,0.2-0.1,0.4-0.2,0.6c-0.9,1.8-2.1,3.5-3.5,5l2.9-2.6l-2.8,2.6c0,0,0,0,0,0.1c-0.1,0.1-0.3,0.3-0.4,0.4c0,0,0-0.1,0-0.1
			l-9.7,8.9C412,289.8,412,289.9,412,289.9z"/>
		
			<linearGradient id="path7346_00000183225800491039381880000011628723879407605904_" gradientUnits="userSpaceOnUse" x1="-12643.0947" y1="-247.369" x2="-11463.1846" y2="-247.369" gradientTransform="matrix(-2.000000e-02 -0.12 0.12 -2.000000e-02 220.3168 -1090.5817)">
			<stop  offset="0.32" style="stop-color:#9E2064"/>
			<stop  offset="0.63" style="stop-color:#C92037"/>
			<stop  offset="0.75" style="stop-color:#CD2335"/>
			<stop  offset="1" style="stop-color:#E97826"/>
		</linearGradient>
		<path id="path7346" style="fill:url(#path7346_00000183225800491039381880000011628723879407605904_);" d="M408.3,259.8
			c0.1,2.1,0.3,4.5,0.5,7.2c0,0.1,0,0.3,0,0.4c0.2,2.3,0.5,4.8,0.9,7.5c0.3,2.4,0.6,4.8,1.1,7.5c0.4,2.3,0.8,4.7,1.2,7.3l9.7-8.9
			c2-3.7,2.5-6,2.5-8.8c0-0.8-0.1-1.6-0.1-2.4c-0.2-2.6-0.5-5.1-0.9-7.7c-0.4-2.3-0.8-4.6-1.5-6.9c-0.4-1.3-0.7-2.5-1.1-3.5
			s-0.7-1.7-1.1-2.4C415.9,252.9,412.2,256.5,408.3,259.8z"/>
		<path id="path7348" class="st2" d="M428.2,301.3l-0.6,0.6l0,0C427.8,301.7,428,301.5,428.2,301.3z"/>
		<path id="path7350" class="st3" d="M428.2,301.3l-0.6,0.6l0,0C427.8,301.7,428,301.5,428.2,301.3z"/>
		
			<linearGradient id="path7362_00000139275291001216555990000004221289035654328967_" gradientUnits="userSpaceOnUse" x1="-12569.9043" y1="-198.2457" x2="-11389.9844" y2="-198.2457" gradientTransform="matrix(-2.000000e-02 -0.12 0.12 -2.000000e-02 220.3168 -1090.5817)">
			<stop  offset="0.32" style="stop-color:#9E2064"/>
			<stop  offset="0.63" style="stop-color:#C92037"/>
			<stop  offset="0.75" style="stop-color:#CD2335"/>
			<stop  offset="1" style="stop-color:#E97826"/>
		</linearGradient>
		<path id="path7362" style="fill:url(#path7362_00000139275291001216555990000004221289035654328967_);" d="M428.2,301.3l-0.6,0.6
			l0,0C427.8,301.7,428,301.5,428.2,301.3z"/>
		<path id="path7364" class="st2" d="M425.9,294.7c0.1,0,0.1-0.1,0.2-0.2L425.9,294.7z"/>
		<path id="path7366" class="st3" d="M425.9,294.7c0.1,0,0.1-0.1,0.2-0.2L425.9,294.7z"/>
		
			<linearGradient id="path7378_00000101818263650869991760000008991273663630519483_" gradientUnits="userSpaceOnUse" x1="-12569.9043" y1="-204.3269" x2="-11389.9844" y2="-204.3269" gradientTransform="matrix(-2.000000e-02 -0.12 0.12 -2.000000e-02 220.3168 -1090.5817)">
			<stop  offset="0.32" style="stop-color:#9E2064"/>
			<stop  offset="0.63" style="stop-color:#C92037"/>
			<stop  offset="0.75" style="stop-color:#CD2335"/>
			<stop  offset="1" style="stop-color:#E97826"/>
		</linearGradient>
		<path id="path7378" style="fill:url(#path7378_00000101818263650869991760000008991273663630519483_);" d="M425.9,294.7
			c0.1,0,0.1-0.1,0.2-0.2L425.9,294.7z"/>
	</g>
	<g id="text5492">
		<path id="path4317" d="M104.7,205.4h35.7c2.5,0,4.2,0.5,5.2,1.5c0.9,0.8,1.5,2,1.5,3.3c0.2,1.3,0.4,2.6,0.7,3.9
			c0.3,2.3,0.6,4.7,0.9,7.2c0.4,2.3,0.8,4.7,1.1,7.2c1.6,9.2,2.9,18.5,3.9,28c1.2,9.5,2.6,18.9,4.2,28.2c0.6,3,1,6,1.3,9
			c0.3,3,0.7,6,1.3,9l0.4,2.2c0.1,0.7,0.5,1.3,1.1,1.8c0.2,0.1,0.5,0.3,0.7,0.4c0.4,0.1,0.8,0.1,1.1-0.2c1.3-0.4,2.3-1.4,2.8-2.6
			c0.7-1.5,1.5-2.8,2.2-3.9c1.8-3.4,3.4-6.6,5-9.8s3.3-6.7,5.2-10.1l14-26.7c4.8-9,9.6-18.1,14.2-27.1c1.2-2.3,2.3-4.6,3.5-6.8
			c1.3-2.3,2.6-4.7,3.7-7c0.6-1.2,1.2-2.3,2-3.5c0.8-1.2,1.8-2.2,3.1-2.9c1-0.7,2.2-1.1,3.5-1.1h37.6c1.1-0.1,2.2,0.2,3.1,0.9
			c1.5,0.9,1.9,2.5,1.3,5s-0.9,4.7-1.3,7.2l-6.5,32.8l-16.4,81.3l-3.7,19c-0.3,1.6-0.6,3.2-1.1,4.8c-0.3,1.3-1.1,2.5-2.2,3.3
			c-1,0.7-2.2,1.2-3.5,1.3h-20.8c-0.9-0.3-1.9-0.5-2.8-0.7c-0.8-0.2-1.4-0.8-1.8-1.5c-0.5-0.9-0.6-1.9-0.4-2.8
			c0.3-1.2,0.6-2.4,0.9-3.7l2.2-11.1l11.4-56.2c0.3-2,0.6-3.9,0.9-5.7c0.4-1.9,0.8-3.8,1.1-5.7l0.9-3.5c0.3-1.2,0.4-2.5,0.4-3.7
			c-0.1-1.1-0.1-2.2,0-3.3c0.3-1.2,0.1-1.9-0.6-2.2c-0.4-0.2-0.8-0.1-1.1,0.2l-0.7,0.7c-0.8,0.6-1.5,1.4-2,2.2l-1.3,2.2
			c-1.3,2.2-2.6,4.4-3.9,6.8c-1.2,2.3-2.5,4.7-3.9,7c-0.4,0.9-0.9,1.8-1.3,2.6c-0.3,0.9-0.8,1.8-1.3,2.6c-1.2,1.9-2.3,3.8-3.3,5.7
			c-0.9,2-1.9,3.8-3.1,5.7c-0.3,0.5-0.5,1-0.7,1.5c-0.2,0.5-0.4,0.9-0.7,1.3c-0.9,1.3-1.7,2.7-2.4,4.2c-0.6,1.5-1.4,3-2.4,4.4
			c-0.9,1.3-1.7,2.7-2.4,4.1c-0.6,1.5-1.3,3-2.2,4.4c-2.6,4.2-5,8.5-7.2,12.9c-2.2,4.2-4.5,8.5-6.8,12.7c-0.4,0.4-0.7,0.8-0.9,1.3
			c0,0.5-0.3,1-0.7,1.3c-1,1.6-2,3.3-2.8,5c-0.8,1.7-1.6,3.3-2.6,4.8c-0.6,1-1.2,2-1.8,2.8c-0.6,0.8-1.2,1.6-2,2.2
			c-0.7,0.5-1.5,0.9-2.4,1.1c-1,0-1.9,0.2-2.8,0.4h-5c-1.2,0-2.5,0.1-3.7,0.2H146c-1.2,0-2.5-0.1-3.7-0.2c-0.9,0-1.7-0.3-2.4-0.9
			c-0.9-0.6-1.6-1.4-2-2.4c-0.2-1.2-0.5-2.4-0.9-3.5c-0.3-1.7-0.5-3.5-0.7-5.2c-0.1-1.8-0.4-3.7-0.9-5.5l-0.2-2
			c-0.4-1.8-0.7-3.6-0.9-5.5c-0.1-1.9-0.4-3.8-0.9-5.7v-1.1c0-0.4-0.1-0.9-0.2-1.3c-0.4-1.3-0.7-2.7-0.9-4.1
			c-0.1-1.5-0.4-2.9-0.7-4.4v-1.1c0-0.4-0.1-0.7-0.2-1.1c-0.3-1.4-0.5-2.9-0.6-4.4c0-1.5-0.2-3-0.7-4.4c-0.6-2.9-1.1-6-1.5-9.2
			c-0.3-3.2-0.7-6.3-1.3-9.4c-0.6-3.6-1.1-7.4-1.5-11.1c-0.3-3.7-1-7.4-2-10.9c-0.2-1.7-0.7-3.4-1.3-5c-0.3-0.3-0.6-0.5-0.9-0.6
			c-0.1-0.3-0.4-0.3-0.9,0c-0.9,0.4-1.5,1.2-1.7,2.1c-0.2,1.1-0.5,2.1-0.9,3.1c-0.6,1-0.9,2.1-1.1,3.3c-0.1,1-0.3,2.1-0.4,3.3
			c-0.3,1.6-0.7,3.2-1.1,4.8c-0.3,1.6-0.7,3.2-1.1,4.8l-11.6,58.2l-2.2,10.7l-0.9,3.5c-0.1,1.1-0.6,2.1-1.3,2.8
			c-0.9,1.1-2.3,1.9-3.7,2c-1.1,0.3-2.2,0.4-3.3,0.4c-1.2-0.1-2.3-0.2-3.5-0.2H72.3c-1.1-0.1-2.2-0.5-3.1-1.3
			c-0.8-0.9-1.1-2.1-0.9-3.3l0.9-4.8l3.7-19.3l16.4-81.3l6.1-30.6c0.1-0.9,0.3-1.9,0.4-3.1c0.3-1.3,0.6-2.6,0.9-3.7s0.6-2.3,0.9-3.3
			c0.3-0.9,0.7-1.8,1.1-2.6c1-1.1,2.4-1.9,3.9-2.2c0.4-0.1,0.7-0.1,0.9,0C103.9,205.6,104.3,205.6,104.7,205.4L104.7,205.4z"/>
		<path id="path4319" d="M366,352.6c0,1.6-0.1,3.2-0.4,4.8c-0.2,1.5-1.3,2.8-2.8,3.3c-1,0.4-2.2,0.7-3.3,0.7h-19.2
			c-1-0.1-1.9-0.5-2.6-1.1c-0.9-0.6-1.5-1.4-1.8-2.4c-0.2-1.1-0.8-2.1-1.5-2.9c-0.3-0.3-0.7-0.5-1.1-0.6c-0.4-0.3-1-0.4-1.5-0.2
			c-0.8,0.3-1.6,0.6-2.4,1.1c-0.7,0.4-1.4,0.8-2.2,1.1c-0.9,0.6-1.8,1.1-2.8,1.5c-0.9,0.4-1.8,0.9-2.8,1.3c-2.1,0.9-4.2,1.6-6.3,2.2
			c-2.2,0.4-4.4,0.9-6.6,1.5c-1.1,0.3-2.2,0.4-3.3,0.4c-0.9,0.1-1.8,0.3-2.8,0.4h-1.3c-0.4,0.1-0.9,0.2-1.3,0.2h-2.4
			c-1.4,0.3-2.9,0.3-4.4,0h-2c-1-0.3-2-0.4-3.1-0.4c-0.9,0.1-1.8,0.1-2.6-0.2l-3.9-0.8c-1.2-0.1-2.4-0.5-3.5-1.1
			c-3.6-1.4-6.9-3.5-9.6-6.1c-2.6-2.9-4.3-6.4-5-10.3c-0.3-1.1-0.5-2.2-0.6-3.3c0-1.2-0.1-2.5-0.2-3.7c-0.1-0.7-0.1-1.5,0-2.2
			c0.3-0.7,0.4-1.4,0.4-2.2c0-0.4,0.1-1.3,0.2-2.6c0.2-1.1,0.5-2.1,0.9-3.1c0.5-1.2,0.9-2.4,1.1-3.7l2.2-4.8
			c0.8-1.6,1.7-3.2,2.8-4.6c2.8-3.9,6.3-7.1,10.3-9.7c4.2-2.4,8.8-4.4,13.5-5.7c2-0.7,4-1.2,6.1-1.5c2-0.3,4.2-0.6,6.3-1.1
			c1.2-0.3,2.5-0.4,3.7-0.4c1.4-0.1,2.8-0.3,4.1-0.6c1-0.3,2-0.4,3.1-0.2c1.2,0,2.4-0.2,3.5-0.4c1-0.3,2-0.4,3.1-0.4
			c1.1,0,2.2-0.2,3.3-0.4c3.2-0.7,6.1-1.3,8.8-1.8c2.9-0.7,5.6-2,7.9-3.9c1.4-1.2,2.6-2.7,3.5-4.4c0.1-0.4,0.2-0.7,0.2-1.1
			c0-0.3,0.1-0.6,0.2-0.9c0.3-0.4,0.5-0.8,0.4-1.3c0.1-0.5,0.2-0.9,0.4-1.3v-3.3c-0.6-4.4-3.1-7.4-7.4-9c-1.5-0.5-3-0.8-4.6-0.9
			c-1.8-0.3-3.6-0.4-5.5-0.2c-1.9,0-3.8,0.1-5.7,0.4c-1.6,0.2-3.1,0.6-4.6,1.1c-1,0.3-2,0.7-2.8,1.3c-0.9,0.5-1.8,1-2.6,1.5
			c-1,0.7-2,1.5-2.9,2.4c-0.9,0.8-1.6,1.8-2.2,2.8c-0.9,1.3-1.8,2.7-2.6,4.1c-0.8,1.4-2.2,2.3-3.7,2.6c-1.2,0.3-2.5,0.4-3.7,0.4
			h-12.2c-0.8,0-1.6,0.1-2.4,0.2c-0.6,0-1.2-0.1-1.8-0.2h-2c-0.3-0.1-0.7-0.2-1.1-0.2c-0.4,0-0.8-0.2-1.1-0.4
			c-1-0.3-1.6-1.2-1.8-2.8c0-0.8,0.2-1.5,0.4-2.2c0.3-0.7,0.6-1.4,0.9-2c0.7-1.6,1.5-3.1,2.2-4.4c0.8-1.4,1.7-2.7,2.6-3.9l1.8-2.2
			l1.8-2.2c1.6-1.7,3.3-3.2,5.2-4.6c0.6-0.2,1.1-0.6,1.5-1.1c0.9-0.6,1.6-1.1,2.2-1.5s1.5-0.9,2.4-1.3c2.7-1.6,5.5-2.8,8.5-3.7
			c3.1-1,6.1-2,9.2-2.8c1.9-0.4,3.8-0.7,5.7-0.9c2-0.2,4-0.4,5.9-0.9c0.9-0.2,1.8-0.2,2.6,0c0.8,0.2,1.6,0.1,2.4-0.2
			c5.6-0.2,11.2,0.1,16.8,0.6c4.9,0.5,9.6,1.6,14.2,3.3c3.9,1.4,7.4,3.6,10.3,6.6c2.9,2.8,4.8,6.4,5.5,10.3c0.4,2.8,0.4,5.7,0,8.5
			c-0.4,3.2-1,6.5-1.8,9.8l-9.8,48.8c-0.4,2.8-0.9,5.6-1.5,8.5c-0.6,2.5-0.8,5.1-0.6,7.6c0,0.5-0.1,1-0.2,1.5L366,352.6L366,352.6z
			 M340.6,318.9c0.3-0.8,0.5-1.6,0.6-2.4c0.1-0.9,0.2-1.7,0.2-2.6c0-0.8,0.1-1.6,0.2-2.4c0.2-0.7-0.1-1.4-0.7-1.8
			c-0.9-0.7-2-1-3.1-0.9c-0.6,0.1-1.1,0.3-1.5,0.4c-0.6,0-1.2,0.1-1.8,0.2c-1.1,0.3-2.2,0.5-3.3,0.7c-1.2,0.1-2.4,0.4-3.7,0.6
			c-0.7,0.2-1.3,0.3-2,0.2c-1.9,0.4-3.9,0.7-5.9,0.9c-1.9,0.2-3.8,0.5-5.7,1.1l-3.5,0.9c-1.1,0.2-2.1,0.5-3.1,0.9
			c-3.4,1.3-6.4,3.3-9,5.9c-2.6,2.6-4.1,6.3-4.6,10.9c-0.2,2.1,0.2,4.3,1.3,6.1c0.7,1.7,2,3.1,3.7,3.9c2,0.9,4.2,1.6,6.3,2
			c2.5,0.4,4.9,0.6,7.4,0.4c2.7-0.3,5.3-0.8,7.9-1.5c3.7-1,7.2-2.9,10.1-5.5c2.9-2.8,5.2-6,7-9.6c0.4-1,0.8-2,1.1-3.1
			c0.3-1.2,0.7-2.4,1.3-3.5L340.6,318.9L340.6,318.9z"/>
		<path id="path4321" class="st1" d="M405.8,248.5h16c1.5,0,3.1,0.1,4.6,0.2c1.2-0.1,2.4,0.2,3.5,0.9c1.5,1,2.2,2.9,2.2,5.7
			c0.1,2.4,0.4,4.7,0.9,7c0.6,4.8,1.1,9.8,1.5,14.9c0.4,5,1,9.9,1.5,14.9c0.6,3.5,1,7.1,1.3,10.7c0.3,3.6,0.7,7.1,1.3,10.5
			c0.1,1.3,0.3,2.7,0.4,4.1c0.2,1.4,1.5,2.4,2.8,2.2c0.3-0.2,0.6-0.4,0.9-0.4l0.6-0.7c0.6-0.7,1.1-1.4,1.5-2.2
			c0.4-0.7,0.9-1.5,1.3-2.4c1.1-1.5,2-3.2,2.6-5c0.7-1.7,1.6-3.4,2.6-5c3.2-6.1,6.3-12.2,9.4-18.4c3.1-6.3,6.2-12.5,9.4-18.6
			c1.1-1.7,2.1-3.4,2.9-5.2c0.9-1.9,1.7-3.6,2.6-5.2l1.8-3.5c0.7-1.1,1.6-2.1,2.6-2.8c1-0.5,2-1,3.1-1.3c0.9-0.3,1.9-0.4,2.9-0.2
			h13.5c1.5,0,2.9,0.1,4.4,0.2c1.1-0.1,2.3,0.3,3.1,1.1c0.7,0.7,0.8,1.8,0.2,3.3c-0.4,1.1-0.8,2.2-1.3,3.3c-1.2,2-2.3,4.2-3.5,6.6
			s-2.3,4.3-3.5,6.3c-0.6,1-1.1,2-1.5,3.1c-0.4,0.9-0.9,1.8-1.3,2.6c-1,1.6-2,3.2-2.8,4.8c-0.9,1.6-1.8,3.2-2.6,4.8
			c-0.2,0.5-0.4,1-0.7,1.5c-0.2,0.5-0.4,0.9-0.7,1.3c-1.3,2.2-2.6,4.4-3.7,6.8l-3.5,6.5c-2.5,4.4-4.9,8.9-7.2,13.6
			c-2.3,4.5-4.8,9-7.4,13.3c-1.2,2-2.3,4.1-3.3,6.1c-0.9,1.9-1.9,3.9-3.1,5.9c-0.4,0.7-0.8,1.4-1.1,2s-0.7,1-1.1,1.8
			c-0.9,1.6-1.7,3.3-2.6,5c-0.8,1.7-1.6,3.3-2.6,4.8c-1,1.6-2,3.1-2.8,4.6c-0.9,1.3-2.2,2.3-3.7,2.8c-1.3,0.4-2.6,0.7-3.9,0.7
			c-1.3-0.1-2.6-0.2-3.9-0.2h-19c-1.3,0-2.6-0.3-3.7-0.9c-0.8-0.7-1.4-1.6-1.8-2.6c-0.1-1.2-0.3-2.4-0.4-3.7
			c-0.4-1.8-0.8-3.6-1.1-5.5s-0.4-3.7-0.7-5.5c-0.1-0.5-0.2-1-0.2-1.5c0-0.7-0.1-1.3-0.2-2c-0.4-1.8-0.7-3.6-0.9-5.5
			c-0.1-1.9-0.4-3.8-0.9-5.7c-0.1-0.7-0.2-1.3-0.2-2c0-0.7-0.1-1.5-0.2-2.2c-0.3-1.3-0.5-2.6-0.6-3.9c-0.1-1.4-0.4-2.8-0.7-4.1
			c-0.1-0.4-0.2-0.9-0.2-1.3c0.2-0.5,0.2-1,0-1.5c-0.3-1.3-0.5-2.6-0.7-3.9c-0.1-1.3-0.4-2.7-0.6-4.1c-0.6-3.4-1.1-6.8-1.5-10.3
			s-0.9-7.2-1.3-10.7c-0.9-3.9-1.5-7.8-2-11.8c-0.3-4-0.8-8-1.5-12l-0.7-5.9c-0.2-0.5-0.2-1-0.2-1.5c0.1-0.7,0.4-1.4,0.9-2
			c0.8-1.2,2.1-2,3.5-2.2C404.8,248.8,405.3,248.7,405.8,248.5L405.8,248.5z"/>
		<path id="path4323" d="M619.5,303.8c0,1.4-0.3,2.7-0.9,3.9c-0.4,1.2-1.1,2.2-2.2,2.8c-1,0.7-2.1,1.1-3.3,1.3
			c-1.5,0.1-3.1,0.3-4.8,0.4h-5c-1.6-0.1-3.1-0.2-4.4-0.2h-56.4c-0.8,0-1.6,0.1-2.4,0.4c-1,0.4-1.9,1-2.6,1.8
			c-0.5,0.5-0.9,1.1-1.3,1.8c-0.4,0.7-0.6,1.4-0.7,2.2c0.2,0.9,0.2,1.8,0,2.6c0,0.8,0.1,1.6,0.2,2.4c0.3,3,1.1,6,2.4,8.8
			c1.5,2.3,3.4,4.4,5.7,5.9c1,0.7,2.1,1.2,3.3,1.5c1.3,0.1,2.5,0.4,3.7,0.9c1.5,0.3,3,0.6,4.6,0.6c1.8,0.2,3.7,0.1,5.5-0.2h2
			c1.5-0.3,2.8-0.6,4.2-0.9l3.9-1.3c1.6-0.7,3.4-1.7,5.5-2.8c1.7-1,3.4-2.1,4.8-3.5c0.9-1,1.8-2,2.8-2.9c0.9-1,2-1.7,3.3-2.2
			c1.8-0.8,3.7-1.1,5.7-0.9h9c0.9-0.2,1.8-0.1,2.6,0.2h2.2c1,0.2,2,0.5,2.8,1.1c0.4,0.3,0.6,0.9,0.4,2c0,0.9-0.2,1.8-0.7,2.6
			c-1.1,1.9-2.3,3.7-3.7,5.5c-1.2,1.7-2.5,3.3-3.9,4.8c-3.7,4.5-8.2,8.4-13.1,11.6c-5.3,3.2-10.9,5.7-16.8,7.4
			c-1.6,0.6-3.3,0.9-5,1.1c-1.8,0.2-3.5,0.5-5.2,0.9c-0.7,0.2-1.3,0.2-2,0c-0.6,0-1.2,0.1-1.8,0.2h-2.4c-0.8,0.3-1.7,0.4-2.6,0.2
			c-0.8,0-1.6-0.1-2.4-0.2c-1-0.2-2-0.2-3.1,0c-1,0.1-1.9,0.1-2.8-0.2c-0.8-0.3-1.6-0.4-2.4-0.4c-0.8,0-1.5-0.1-2.2-0.4
			c-1.6-0.3-3.2-0.7-4.8-1.1c-1.4-0.3-2.7-0.8-3.9-1.5c-1.5-0.6-2.8-1.1-4.1-1.5c-1.2-0.5-2.4-1.2-3.5-2c-4-2.8-7.5-6.2-10.6-10.1
			c-2.8-4.1-4.9-8.7-6.1-13.6c-0.4-1.6-0.7-3.2-0.9-4.8c0-1.8-0.2-3.5-0.7-5.2v-1.5c0.1-0.6,0.2-1.2,0.2-1.8c-0.2-1.9-0.2-3.8,0-5.7
			l0.9-6.1c0.2-0.8,0.2-1.6,0.2-2.4c0.1-0.8,0.4-1.6,0.7-2.4l0.6-2.6l1.8-5.2c1-2.5,2-4.9,2.9-7.2c0.9-2.3,2-4.5,3.3-6.5
			c8.8-14.7,22.4-26.1,38.5-32.1c2.1-0.9,4.3-1.4,6.6-1.8c2.2-0.4,4.5-1,7-1.5c1.1-0.1,2.2-0.2,3.3-0.2s2.2-0.1,3.3-0.2
			c7.4-0.2,13.6,0.7,18.6,2.6c4.7,1.6,9,4,12.9,7c1.2,0.9,2.3,1.9,3.3,3.1c1.1,0.9,2.1,2.1,2.8,3.3c0.3,0.7,0.8,1.4,1.5,1.8
			c0.9,1.6,1.6,3.3,2.2,5c0.7,1.6,1.5,3.3,2.4,5c0.4,1.3,0.7,2.7,0.9,4.1c0.3,1.3,0.6,2.8,0.9,4.4c0.3,2,0.4,3.9,0.4,5.9
			c0.2,2,0.3,4.1,0.4,6.1c0,1.3-0.3,2.7-0.7,3.9c-0.3,1.2-0.4,2.5-0.2,3.7L619.5,303.8L619.5,303.8z M589.2,290.9
			c1.3-1.4,1.8-3.4,1.3-5.2c-0.3-2.2-0.5-3.8-0.7-4.8c-1.1-3.6-3.3-6.8-6.3-9c-2.9-2.2-7.3-3.3-13.3-3.5c-0.5,0.3-1,0.4-1.5,0.2
			c-0.5-0.2-1-0.2-1.5,0c-0.9,0.3-1.7,0.5-2.6,0.6c-0.8,0-1.6,0.1-2.4,0.4c-6.8,2-12.6,6.2-16.6,12c-0.6,0.8-1.1,1.6-1.5,2.4
			c-0.6,0.9-1,1.8-1.3,2.8c-0.3,0.8-0.4,1.7-0.4,2.6c0,0.9,0.4,1.7,1.1,2.2c1.4,0.8,3,1.2,4.6,1.1h36.5
			C586.7,292.7,588.3,292.1,589.2,290.9L589.2,290.9z"/>
		<path id="path4325" d="M713.8,245.7c8.8-0.3,15.8,1,21,3.7c5.2,2.5,9.2,6.9,11.4,12.2c0.7,1.7,1.2,3.4,1.3,5.2
			c0.3,1.8,0.5,3.6,0.7,5.5c0.2,1.1,0.2,2.2,0,3.3c-0.2,1-0.2,2,0,3.1c-0.3,0.5-0.3,1.2-0.2,1.8c-0.2,2.1-0.4,4.2-0.9,6.3
			c-0.4,2.2-0.9,4.3-1.3,6.3l-3.7,19.5l-7.2,35.4c-0.6,2.8-1.2,5.5-1.8,8.1c-0.4,2.3-2,4.1-4.2,4.8c-1,0.3-2,0.5-3.1,0.4h-15.3
			c-1.5,0-3.1-0.1-4.6-0.2c-1.2-0.2-2.2-0.9-2.8-2c-0.5-1-0.6-2.2-0.4-3.3c0.3-1.5,0.6-3,0.9-4.6l3.1-15.3l6.6-32.6
			c1-5.4,1.7-10.4,2.2-14.9c0.6-4.7,0.1-8.6-1.5-11.8c-1.6-3-4.4-5.2-7.7-6.1c-0.8-0.3-1.6-0.4-2.4-0.4c-0.8,0-1.5-0.2-2.2-0.4
			c-0.9-0.2-1.9-0.2-2.8,0c-0.8,0-1.6,0.1-2.4,0.2c-0.6,0.1-1.2,0.2-1.8,0.2c-0.4,0-0.9,0.1-1.3,0.2c-3.1,0.7-6,1.9-8.7,3.5
			c-5.4,3.4-9.4,8.6-11.4,14.6c-2.2,7.1-4,14.3-5.5,21.6l-5.5,27.3l-2.6,13.3l-0.9,3.9c-0.2,1.2-0.7,2.3-1.3,3.3
			c-0.9,1.5-2.4,2.6-4.2,2.8c-2,0.3-3.9,0.5-5.9,0.4h-10.9c-1.6,0-3.2-0.1-4.8-0.2s-2.6-0.7-3.1-1.5c-0.9-1.3-1-3.2-0.4-5.7
			s1.1-4.8,1.5-7l5.9-29.7l9.6-48.1l2.4-11.1c0.3-1.6,0.6-3.1,0.9-4.4c0.3-1.3,1-2.4,2-3.3c0.4-0.5,0.9-0.8,1.5-0.9
			c0.7-0.3,1.4-0.5,2.2-0.7h1.1c0.7-0.1,1.5-0.2,2.2-0.2H669c1.1,0,2.2,0.1,3.3,0.2c1,0,2.1,0.1,3.1,0.4c0.8,0.4,1.4,1.1,1.5,2
			c0.3,1,0.5,2,0.4,3.1c0,0.5-0.1,1-0.2,1.5c-0.1,0.4-0.1,0.9,0,1.3c0.1,0.5,0.2,0.9,0.4,1.3c0.4,0.2,0.7,0.4,1.1,0.7
			c1.5,0.1,3.1-0.4,4.2-1.5c1.2-1.2,2.5-2.2,3.9-3.1c4.5-2.9,9.4-5.3,14.4-7c1.4-0.4,2.7-0.7,4.2-0.9c1.5-0.1,3.1-0.4,4.8-0.6
			c0.7-0.2,1.3-0.2,2,0C712.7,245.9,713.3,245.8,713.8,245.7z"/>
	</g>
	<g id="text9112">
		<path id="path4328" d="M768,245.4c0.2,0.1,0.2,0.4,0.2,0.7c0,0.4-0.1,0.7-0.2,1v0.4c-0.1,0.2-0.2,0.5-0.4,0.7
			c-0.2,0.2-0.3,0.3-0.6,0.4c-0.4,0.1-0.7,0.1-1.1,0.1c-0.5,0-0.9,0-1.2,0h-0.7c-0.1,0-0.3,0-0.4,0c-0.1,0-0.2,0-0.3,0
			c-0.4,0.2-0.7,0.5-0.8,0.8c-0.1,0.2-0.1,0.3-0.2,0.5l-0.1,0.6l-2.1,10.3c0,0.1,0,0.3,0,0.4c0,0.1,0,0.2-0.1,0.4l-0.1,0.4l-0.1,0.3
			c0,0.1,0,0.2-0.1,0.2c-0.1,0.2-0.3,0.4-0.6,0.5c-0.2,0.1-0.3,0.1-0.5,0.1h-2c-0.4,0-0.7-0.1-1-0.4c-0.1-0.2-0.1-0.4-0.1-0.6
			c0.1-0.2,0.1-0.5,0.2-0.8l2.1-10.3l0.1-0.4c0-0.1,0-0.3,0-0.4l0.1-0.6c0-0.5-0.1-0.8-0.4-0.9c-0.4-0.2-0.8-0.2-1.2-0.2
			c-0.5,0-0.9,0-1.3,0c-0.1,0-0.3,0-0.4,0c-0.1,0-0.2,0-0.3,0c-0.1,0-0.2,0-0.3,0c-0.1,0-0.2,0-0.3,0c-0.3-0.1-0.4-0.4-0.4-0.7
			c0-0.4,0.1-0.8,0.2-1.1c0-0.2,0.1-0.3,0.1-0.5c0.1-0.1,0.1-0.3,0.2-0.4c0.1-0.1,0.2-0.2,0.3-0.3c0.1-0.1,0.3-0.2,0.4-0.2
			c0.1,0,0.1,0,0.2,0c0.1,0,0.1,0,0.2,0h11.7c0.2,0,0.5,0,0.7,0C767.6,245.3,767.8,245.3,768,245.4L768,245.4z M791.2,245.5
			c0.1,0.2,0.2,0.5,0.1,0.7c0,0.3-0.1,0.6-0.1,0.9l-2.8,14.2c-0.1,0.3-0.1,0.6-0.2,0.9c-0.1,0.2-0.2,0.4-0.3,0.6
			c-0.3,0.3-0.6,0.4-1,0.4h-1.2c-0.2,0-0.4,0-0.6,0c-0.2,0-0.3,0-0.4-0.1c-0.2,0-0.4-0.2-0.5-0.4c0-0.2,0-0.4,0-0.7l0.1-0.7
			c0-0.1,0-0.2,0-0.3l0.1-0.4l1.1-5.5c0-0.4,0.1-0.7,0.2-1c0.1-0.3,0.1-0.7,0.1-1c0-0.1,0-0.2,0-0.4c0-0.1,0-0.2-0.1-0.3
			c0,0-0.1,0-0.1,0c-0.1,0.1-0.2,0.1-0.3,0.2c-0.3,0.4-0.6,0.8-0.8,1.2c-0.2,0.4-0.5,0.9-0.7,1.3c-0.5,0.9-1,1.8-1.5,2.8
			s-1,1.8-1.5,2.7c-0.2,0.4-0.5,0.9-0.8,1.4c-0.2,0.4-0.5,0.8-0.9,1.1c-0.2,0.1-0.4,0.2-0.6,0.2h-1.4c-0.1-0.1-0.3-0.1-0.4-0.1
			c-0.1-0.1-0.2-0.1-0.3-0.2c-0.1-0.1-0.2-0.2-0.2-0.4L776,262c-0.1-0.3-0.1-0.5-0.2-0.8c0-0.3-0.1-0.6-0.1-0.9
			c-0.2-0.9-0.3-1.7-0.4-2.6s-0.3-1.8-0.4-2.6c-0.1-0.5-0.2-1-0.3-1.5c0-0.5-0.2-0.9-0.5-1.3c0,0-0.1,0-0.1,0h-0.1
			c-0.1,0.1-0.2,0.2-0.3,0.4c-0.1,0.1-0.1,0.3-0.2,0.4c0,0.1,0,0.3-0.1,0.4l-0.1,0.7c-0.1,0.1-0.1,0.2-0.1,0.4c0,0.1,0,0.2,0,0.3
			l-1,5.1c-0.1,0.4-0.2,0.8-0.3,1.4c0,0.4-0.2,0.8-0.4,1.1c-0.1,0.1-0.2,0.1-0.3,0.2c-0.1,0.1-0.1,0.1-0.2,0.1
			c-0.2,0.1-0.3,0.1-0.5,0.1h-1.7c-0.3,0-0.6-0.1-0.9-0.3c-0.2-0.1-0.2-0.3-0.2-0.6c0-0.3,0.1-0.6,0.1-0.9l2.9-14.4
			c0.1-0.3,0.1-0.5,0.2-0.7c0.1-0.2,0.2-0.4,0.3-0.6c0.2-0.2,0.4-0.4,0.7-0.4c0.1,0,0.1,0,0.2,0c0.1,0,0.1,0,0.2,0h3.8
			c0.2,0,0.5,0.1,0.7,0.2c0.3,0.2,0.4,0.5,0.4,0.8c0.1,0.4,0.1,0.7,0.2,1c0.1,0.8,0.3,1.6,0.4,2.5s0.3,1.6,0.4,2.5
			c0.1,0.4,0.2,0.9,0.3,1.4c0.1,0.5,0.2,0.9,0.3,1.4c0.1,0.2,0.1,0.4,0.1,0.6c0,0.2,0.2,0.3,0.3,0.4c0.1,0.1,0.3,0,0.4-0.1
			c0.1-0.1,0.2-0.2,0.3-0.3c0.3-0.3,0.5-0.6,0.7-1c0.2-0.4,0.4-0.7,0.6-1.1c0.6-1,1.2-1.9,1.7-2.9s1.1-2,1.8-3
			c0.2-0.4,0.5-0.8,0.7-1.3c0.2-0.4,0.6-0.8,1-1c0.2-0.1,0.4-0.1,0.6-0.1h3.2c0.2,0,0.3,0,0.5,0h0.2c0.1,0.1,0.2,0.1,0.3,0.1
			C791.1,245.3,791.2,245.4,791.2,245.5L791.2,245.5z"/>
	</g>
	<g id="g4701">
		
			<linearGradient id="path4710_00000111162213625463280510000018064539914544972953_" gradientUnits="userSpaceOnUse" x1="-9741.5137" y1="1925.8547" x2="-9576.124" y2="2119.2446" gradientTransform="matrix(7.000000e-02 -0.11 0.11 7.000000e-02 995.1712 -955.4136)">
			<stop  offset="0" style="stop-color:#F69923"/>
			<stop  offset="0.31" style="stop-color:#F79A23"/>
			<stop  offset="0.84" style="stop-color:#E97826"/>
		</linearGradient>
		<path id="path4710" style="fill:url(#path4710_00000111162213625463280510000018064539914544972953_);" d="M502,244
			c-2.6,1.1-7.3,4.6-13,9.8l3.2,9c3.5-3.8,7.2-7.3,11.2-10.5c0.3-0.2,0.4-0.4,0.4-0.4s-0.3,0.2-0.4,0.4c-3.8,3.3-7.4,6.9-10.7,10.8
			c5.9,0.4,11.7,0.6,17.6,0.4c3.1-9.3,0.4-14.1,0.4-14.1S507.4,241.8,502,244z"/>
		<path id="path4712" class="st1" d="M487.4,290.7C487.4,290.8,487.5,290.8,487.4,290.7h-0.6c0,0-0.1,0-0.1,0H487.4z"/>
		<path id="path4714" class="st1" d="M480.7,305.1c-0.4,0-0.8,0-1.1,0C479.9,305.1,480.3,305.1,480.7,305.1z"/>
		<path id="path4716" class="st1" d="M444.9,334.2c0.1-0.1,0.1-0.2,0.2-0.4c1.4-2.4,2.7-4.8,4-7.1c1.5-2.6,2.9-5.1,4.4-7.5
			s3-5,4.4-7.4s3-4.9,4.5-7.2c1.2-1.9,2.4-3.7,3.5-5.5c0.4-0.6,0.8-1.2,1.1-1.7c0.8-1.1,1.5-2.2,2.2-3.3l2-2.9
			c0.2-0.3,0.5-0.6,0.6-1l0.1-0.2h-0.6l-0.3-0.9c0,0.1-0.1,0.2-0.1,0.2c-1,1.4-2,2.9-3,4.4c-0.6,0.8-1.1,1.7-1.7,2.6
			c-1.6,2.4-3.2,4.8-4.7,7.2s-3.1,4.9-4.6,7.4s-3,4.8-4.4,7.3s-2.9,4.8-4.3,7.2s-2.9,5-4.3,7.5c-0.3,0.5-0.6,1.1-0.9,1.7
			c-1.1,2-2.2,4-3.3,5.9l0.5,1.5h0.6c0,0,0.1-0.1,0.1-0.2C442.2,339.2,443.6,336.7,444.9,334.2z"/>
		<path id="path4720" class="st2" d="M476.7,312.2c-0.6,0-1.2,0-1.8,0l0,0c0.3,0,0.6,0,0.9,0C476.1,312.3,476.4,312.3,476.7,312.2z"
			/>
		<path id="path4722" class="st3" d="M476.7,312.2c-0.6,0-1.2,0-1.8,0l0,0c0.3,0,0.6,0,0.9,0C476.1,312.3,476.4,312.3,476.7,312.2z"
			/>
		
			<linearGradient id="path4737_00000128477999322818676120000003708123404975257496_" gradientUnits="userSpaceOnUse" x1="-10860.6104" y1="1708.8656" x2="-9680.7002" y2="1708.8656" gradientTransform="matrix(7.000000e-02 -0.11 0.11 7.000000e-02 995.1712 -955.4136)">
			<stop  offset="0.32" style="stop-color:#9E2064"/>
			<stop  offset="0.63" style="stop-color:#C92037"/>
			<stop  offset="0.75" style="stop-color:#CD2335"/>
			<stop  offset="1" style="stop-color:#E97826"/>
		</linearGradient>
		<path id="path4737" style="fill:url(#path4737_00000128477999322818676120000003708123404975257496_);" d="M475.9,282.5
			c1.7-2.3,3.5-4.6,5.2-6.8s3.6-4.5,5.4-6.6l0.3-0.4c1.8-2.1,3.6-4.1,5.4-6l-3.2-9c-0.4,0.4-0.8,0.7-1.2,1.1
			c-1.5,1.4-3.1,2.9-4.7,4.5c-1.8,1.8-3.7,3.8-5.7,5.8c-1.8,1.9-3.6,3.9-5.5,6c-1.6,1.8-3.1,3.6-4.7,5.5c-0.1,0.1-0.1,0.1-0.2,0.2
			l4.1,12.2C472.7,287,474.3,284.7,475.9,282.5z"/>
		
			<linearGradient id="path4748_00000176722503046510282460000011726357192322424988_" gradientUnits="userSpaceOnUse" x1="-10718.1797" y1="1822.4451" x2="-10015.0703" y2="1822.4451" gradientTransform="matrix(7.000000e-02 -0.11 0.11 7.000000e-02 995.1712 -955.4136)">
			<stop  offset="0" style="stop-color:#282662"/>
			<stop  offset="0.1" style="stop-color:#662E8D"/>
			<stop  offset="0.79" style="stop-color:#9F2064"/>
			<stop  offset="0.95" style="stop-color:#CD2032"/>
		</linearGradient>
		<path id="path4748" style="fill:url(#path4748_00000176722503046510282460000011726357192322424988_);" d="M440.1,343
			c-1.1,2-2.2,4-3.2,6.1c0,0,0,0.1,0,0.1c-0.2,0.3-0.3,0.6-0.5,0.9c-0.7,1.4-1.4,2.7-2.9,5.5c1.6,1,2.7,3.3,3.6,5.8
			c0.2-2.5-0.5-4.9-2.1-6.9c8.3,1.6,15.9,0.5,20.5-5.1c0.4-0.5,0.8-1,1.2-1.6c-2,1.9-4.2,2.5-8.2,1.7l0,0c6.2-1.8,9.5-3.9,12.7-7.6
			c0.8-0.9,1.5-1.9,2.3-3c-5.1,4.2-11.9,5.3-18.1,3.1l-4.7-0.2C440.5,342.3,440.3,342.6,440.1,343z"/>
		
			<linearGradient id="path4759_00000137811648000546938670000006258142289477514169_" gradientUnits="userSpaceOnUse" x1="-10794.3398" y1="1690.5811" x2="-9614.4297" y2="1690.5811" gradientTransform="matrix(7.000000e-02 -0.11 0.11 7.000000e-02 995.1712 -955.4136)">
			<stop  offset="0.32" style="stop-color:#9E2064"/>
			<stop  offset="0.63" style="stop-color:#C92037"/>
			<stop  offset="0.75" style="stop-color:#CD2335"/>
			<stop  offset="1" style="stop-color:#E97826"/>
		</linearGradient>
		<path id="path4759" style="fill:url(#path4759_00000137811648000546938670000006258142289477514169_);" d="M443.9,332.8
			c1.4-2.5,2.8-5,4.3-7.5s2.8-4.8,4.3-7.2s2.9-4.9,4.4-7.3s3.1-4.9,4.6-7.4s3.1-4.8,4.7-7.2c0.6-0.9,1.1-1.7,1.7-2.6
			c1-1.5,2-2.9,3-4.4c0-0.1,0.1-0.2,0.2-0.2l-4-12.2c-0.1,0.1-0.2,0.3-0.4,0.4c-1.7,2-3.4,4-5,6.1s-3.3,4.3-5,6.5
			c-1.4,1.9-2.7,3.8-4.1,5.7c-0.3,0.4-0.5,0.8-0.8,1.2c-1.6,2.4-3.2,4.8-4.5,7c-1.6,2.6-3,5-4.2,7.4c-0.8,1.5-1.6,3-2.3,4.5
			c-0.6,1.2-1.2,2.5-1.7,3.7c-1.3,2.9-2.5,5.8-3.5,8.7l4.1,12.4c1-1.9,2.2-3.9,3.3-5.9C443.2,334,443.5,333.4,443.9,332.8z"/>
		
			<linearGradient id="path4770_00000062899344788036507600000013156138571513168568_" gradientUnits="userSpaceOnUse" x1="-10708.29" y1="1701.4468" x2="-10088.21" y2="1701.4468" gradientTransform="matrix(7.000000e-02 -0.11 0.11 7.000000e-02 995.1712 -955.4136)">
			<stop  offset="0" style="stop-color:#282662"/>
			<stop  offset="0.1" style="stop-color:#662E8D"/>
			<stop  offset="0.79" style="stop-color:#9F2064"/>
			<stop  offset="0.95" style="stop-color:#CD2032"/>
		</linearGradient>
		<path id="path4770" style="fill:url(#path4770_00000062899344788036507600000013156138571513168568_);" d="M435.3,328.4
			c-1.3,3.5-2.3,7.1-3.1,10.8c0,0.1-0.1,0.3-0.1,0.4c-1.4-3.2-5.8-6.7-5.8-6.7c2.7,5.6,4.6,10.9,4.3,15.9c-1.9,0.1-4.4-0.8-7.2-2.3
			c2.7,3.3,4.8,4.4,5.7,4.7c-2.8-0.2-6.1,1.3-9.4,3.1c4.6-1.1,8.2-1.3,10.6-0.4c-5.6,10.6-11.4,22.5-17.3,35.1
			c1.2-0.2,2.2-0.9,2.7-2c1-2.3,8.1-17.2,18.5-36.8c0.3-0.5,0.6-1.1,0.9-1.7c0.1-0.2,0.2-0.3,0.2-0.5c1.1-2,2.2-4.1,3.4-6.3
			c0.3-0.5,0.5-1,0.8-1.5l0,0l-4.1-12.3C435.4,328.2,435.4,328.3,435.3,328.4z"/>
		
			<linearGradient id="path4781_00000004527863626185910410000000679053448755398069_" gradientUnits="userSpaceOnUse" x1="-10794.3398" y1="1818.6453" x2="-9614.4297" y2="1818.6453" gradientTransform="matrix(7.000000e-02 -0.11 0.11 7.000000e-02 995.1712 -955.4136)">
			<stop  offset="0.32" style="stop-color:#9E2064"/>
			<stop  offset="0.63" style="stop-color:#C92037"/>
			<stop  offset="0.75" style="stop-color:#CD2335"/>
			<stop  offset="1" style="stop-color:#E97826"/>
		</linearGradient>
		<path id="path4781" style="fill:url(#path4781_00000004527863626185910410000000679053448755398069_);" d="M471.9,290.3
			c-0.2,0.3-0.4,0.6-0.6,1c-0.6,1-1.3,1.9-2,2.9s-1.4,2.2-2.2,3.3c-0.4,0.6-0.8,1.1-1.1,1.7c-1.1,1.8-2.3,3.6-3.5,5.5
			c-1.5,2.3-2.9,4.7-4.5,7.2s-2.9,4.8-4.4,7.4s-2.9,4.9-4.4,7.5c-1.3,2.3-2.6,4.7-4,7.1c-0.1,0.1-0.1,0.2-0.2,0.4
			c-1.3,2.4-2.7,4.9-4.1,7.5c0,0-0.1,0.1-0.1,0.2l4.7,0.2c-0.1,0-0.2-0.1-0.3-0.1c5.7,0.1,13.8-3,19.3-7.4c2.7-2.2,5.2-4.8,7.3-7.5
			c1.9-2.4,3.6-4.9,5.1-7.6c1.5-2.5,2.9-5.2,4.4-8.1c-1.5,0.5-3,0.8-4.6,0.9h-0.9c-0.3,0-0.6,0-0.9,0l0,0c5.5-1.2,9.4-4.6,12.4-9
			c-2.1,1-4.4,1.6-6.7,1.8c-0.4,0-0.7,0-1.1,0h-0.3c1.8-0.4,3.5-1.1,5-1.9c0.3-0.2,0.6-0.3,0.9-0.5c0.5-0.3,0.9-0.6,1.3-0.9
			c0.3-0.2,0.5-0.4,0.8-0.6c0.6-0.5,1.2-1.1,1.8-1.8c0.2-0.2,0.3-0.4,0.5-0.6c0.2-0.3,0.5-0.6,0.6-0.9c0.9-1.4,1.7-2.6,2.3-3.7
			c0.3-0.5,0.6-1,0.9-1.5c0.1-0.2,0.2-0.4,0.3-0.5c0.2-0.5,0.5-1,0.7-1.4c0.2-0.5,0.4-1,0.6-1.5l0,0c-0.2,0.1-0.4,0.2-0.7,0.3
			c-2.2,0.8-4.5,1.2-6.8,1.3l4.4,0.2l-4.4-0.2c0,0-0.1,0-0.1,0c-0.2,0-0.5,0-0.7,0c0,0,0.1,0,0.1,0l-14.9-0.6
			C471.9,290.2,471.9,290.3,471.9,290.3z"/>
		
			<linearGradient id="path4792_00000151518124021288394870000016456093675344327066_" gradientUnits="userSpaceOnUse" x1="-10867.5303" y1="1816.8251" x2="-9687.6201" y2="1816.8251" gradientTransform="matrix(7.000000e-02 -0.11 0.11 7.000000e-02 995.1712 -955.4136)">
			<stop  offset="0.32" style="stop-color:#9E2064"/>
			<stop  offset="0.63" style="stop-color:#C92037"/>
			<stop  offset="0.75" style="stop-color:#CD2335"/>
			<stop  offset="1" style="stop-color:#E97826"/>
		</linearGradient>
		<path id="path4792" style="fill:url(#path4792_00000151518124021288394870000016456093675344327066_);" d="M492.7,263.1
			c-1.6,1.8-3.4,3.9-5.3,6.2c-0.1,0.1-0.2,0.2-0.3,0.4c-1.7,2-3.4,4.3-5.3,6.8c-1.6,2.1-3.3,4.4-5.1,6.9c-1.6,2.1-3.1,4.4-4.8,6.9
			l14.9,0.6c4.5-1.4,6.7-2.8,9-5.1c0.6-0.6,1.2-1.3,1.8-2c1.9-2.1,3.7-4.5,5.4-6.9c1.5-2.2,3-4.4,4.3-6.7c0.7-1.2,1.3-2.4,1.9-3.7
			c0.4-1,0.8-1.9,1.1-2.8C504.5,263.7,498.6,263.5,492.7,263.1z"/>
		<path id="path4794" class="st2" d="M475.8,312.3h-0.9C475.2,312.3,475.5,312.3,475.8,312.3z"/>
		<path id="path4796" class="st3" d="M475.8,312.3h-0.9C475.2,312.3,475.5,312.3,475.8,312.3z"/>
		
			<linearGradient id="path4807_00000129175906836335290540000016986660668583145126_" gradientUnits="userSpaceOnUse" x1="-10794.3398" y1="1856.5477" x2="-9614.4297" y2="1856.5477" gradientTransform="matrix(7.000000e-02 -0.11 0.11 7.000000e-02 995.1712 -955.4136)">
			<stop  offset="0.32" style="stop-color:#9E2064"/>
			<stop  offset="0.63" style="stop-color:#C92037"/>
			<stop  offset="0.75" style="stop-color:#CD2335"/>
			<stop  offset="1" style="stop-color:#E97826"/>
		</linearGradient>
		<path id="path4807" style="fill:url(#path4807_00000129175906836335290540000016986660668583145126_);" d="M475.8,312.3h-0.9
			C475.2,312.3,475.5,312.3,475.8,312.3z"/>
	</g>
</g>
</svg>
